<svg data-v-0dd9719b="" version="1.0" xmlns="http://www.w3.org/2000/svg" xmlns:xlink="http://www.w3.org/1999/xlink" width="100%" height="100%" viewBox="0 0 340.000000 250.000000" preserveAspectRatio="xMidYMid meet" color-interpolation-filters="sRGB" style="margin: auto;">  <rect data-v-0dd9719b="" x="0" y="0" width="100%" height="100%" fill="url(#watermark)" fill-opacity="1" class="watermarklayer"></rect> <g data-v-0dd9719b="" fill="#a23bea" class="icon-text-wrapper icon-svg-group iconsvg" transform="translate(52.30000305175781,94.32954406738281)"><g class="iconsvg-imagesvg" transform="matrix(1,0,0,1,0,0)" opacity="1"><g><rect fill="#a23bea" fill-opacity="0" stroke-width="2" x="0" y="0" width="60" height="61.34091234383626" class="image-rect"></rect> <svg x="0" y="0" width="60" height="61.34091234383626" filtersec="colorsb3176908592" class="image-svg-svg primary" style="overflow: visible;"><svg xmlns="http://www.w3.org/2000/svg" viewBox="-0.009999752044677734 -0.01398620754480362 131.72084045410156 134.6639862060547"><title>资源 62</title><path d="M0 96.48V65.84c.1-17.72 6.72-32.73 18.84-45.49a65.65 65.65 0 0 1 31-18.18 67.25 67.25 0 0 1 29.08-1.09c10.1 1.68 19 5.86 27.29 11.48a62.26 62.26 0 0 1 12.33 11.51 66.51 66.51 0 0 1 12.74 23.15c1 3.11.35 4.17-2.91 4.19h-18.45a4.31 4.31 0 0 1-4.44-2.84C100.54 37.93 92.09 31 81.31 26.92a41 41 0 0 0-24.23-1.21 40.51 40.51 0 0 0-19.46 10.44c-8.69 8.46-13.27 18.79-13.19 31.14.13 20.77 0 41.53 0 62.3 0 4.27-.77 5-5.11 5.06H4.61c-4.14 0-4.62-.48-4.62-4.53z" fill="#5d33f6"></path><path d="M44.92 122.07v-8.47c0-2.08.67-3.38 3-3.38 5 0 10-.12 14.93 0 13.28.25 25.14-3.29 34.68-12.92a35 35 0 0 0 7.39-10.55 5.84 5.84 0 0 1 6.08-3.96c5.9.12 11.81 0 17.71 0 2.77 0 3.49 1.16 2.67 3.81A65.94 65.94 0 0 1 108 120.52c-8.67 6.56-18.29 11.35-29.34 12.8a108.93 108.93 0 0 1-24.07 1c-1.88-.17-3.8.31-5.71.33-3 0-3.9-.9-4-3.84s0-5.81 0-8.72z" fill="#5d33f6"></path><path d="M40.43 67.19c-.67-14.81 12.91-26.7 26-26.89 14.31-.2 27.36 11.45 27.27 26.53-.08 15.43-11.7 26.81-26.9 26.82a26.28 26.28 0 0 1-26.37-26.46z" fill="#a23bea"></path></svg></svg> <!----></g></g> <g transform="translate(67.00000381469727,17.010456085205078)"><g data-gra="path-name" fill-rule="" class="tp-name iconsvg-namesvg" opacity="0.9680297678694867" transform="matrix(1,0,0,1,0,0.6394046426102662)"><g transform="scale(1)"><g><path d="M11.41-20.39L11.41-20.39Q15.91-20.39 18.8-17.37L18.8-17.37Q21.63-14.45 21.63-10.07 21.63-5.69 18.8-2.77L18.8-2.77Q15.91 0.24 11.41 0.24L11.41 0.24Q6.91 0.24 4.02-2.77L4.02-2.77Q1.19-5.69 1.19-10.07 1.19-14.45 4.02-17.37L4.02-17.37Q6.91-20.39 11.41-20.39ZM11.41-1.98L11.41-1.98Q15-1.98 17.22-4.32L17.22-4.32Q19.35-6.57 19.35-10.07L19.35-10.07Q19.35-13.57 17.22-15.82L17.22-15.82Q15-18.16 11.41-18.16L11.41-18.16Q7.82-18.16 5.6-15.82L5.6-15.82Q3.47-13.57 3.47-10.07L3.47-10.07Q3.47-6.57 5.6-4.32L5.6-4.32Q7.82-1.98 11.41-1.98ZM27.08-15.21L27.08-12.78Q28.9-15.46 32.53-15.46L32.53-15.46Q35.81-15.46 37.85-13.17L37.85-13.17Q39.89-10.92 39.89-7.61L39.89-7.61Q39.89-4.29 37.85-2.04L37.85-2.04Q35.81 0.24 32.37 0.24 28.94 0.24 27.08-2.46L27.08-2.46 27.08 6.02 24.8 6.02 24.8-15.21 27.08-15.21ZM32.22-13.39L32.22-13.39Q29.76-13.39 28.33-11.68L28.33-11.68Q26.96-10.07 26.96-7.61L26.96-7.61Q26.96-5.14 28.33-3.53L28.33-3.53Q29.76-1.83 32.22-1.83L32.22-1.83Q34.66-1.83 36.18-3.53L36.18-3.53Q37.61-5.14 37.61-7.61L37.61-7.61Q37.61-10.07 36.18-11.68L36.18-11.68Q34.66-13.39 32.22-13.39ZM49.66-1.83L49.66-1.83Q52.73-1.83 54.07-4.38L54.07-4.38 56.56-4.38Q55.77-2.31 54.05-1.03 52.33 0.24 49.62 0.24L49.62 0.24Q46.19 0.24 44.03-2.04L44.03-2.04Q41.93-4.26 41.93-7.61L41.93-7.61Q41.93-10.98 43.94-13.17L43.94-13.17Q46.06-15.46 49.47-15.46L49.47-15.46Q52.88-15.46 55.01-13.17L55.01-13.17Q57.02-10.98 57.02-7.61L57.02-7.61 57.02-6.69 44.27-6.69Q44.51-4.59 45.94-3.23L45.94-3.23Q47.4-1.83 49.66-1.83ZM49.47-13.39L49.47-13.39Q47.37-13.39 45.94-12.08L45.94-12.08Q44.6-10.83 44.3-8.82L44.3-8.82 54.65-8.82Q54.34-10.83 53-12.08L53-12.08Q51.57-13.39 49.47-13.39ZM59.82-15.21L62.1-15.21 62.1-12.84Q62.92-13.94 64.11-14.7 65.29-15.46 66.82-15.46 68.34-15.46 69.43-15.03 70.53-14.6 71.35-13.75L71.35-13.75Q73.24-11.9 73.24-8.85L73.24-8.85 73.24 0 70.95 0 70.95-8.79Q70.95-10.89 69.77-12.14 68.58-13.39 66.69-13.39L66.69-13.39Q64.78-13.39 63.44-12.11L63.44-12.11Q62.1-10.8 62.1-8.76L62.1-8.76 62.1 0 59.82 0 59.82-15.21Z" transform="translate(-1.190000057220459, 21.299999237060547)"></path></g> <!----> <!----> <!----> <!----> <!----> <!----> <g data-gra="path-name-1" fill="#5d33f6" transform="translate(75.04999542236328,0)"><g transform="scale(1)"><path d="M4.75-7.18L4.75 0 2.46 0 2.46-20.14 11.53-20.14Q14.73-20.14 16.61-18.38L16.61-18.38Q18.47-16.61 18.47-13.66L18.47-13.66Q18.47-10.68 16.6-8.93 14.73-7.18 11.53-7.18L11.53-7.18 4.75-7.18ZM11.38-17.98L4.75-17.98 4.75-9.31 11.38-9.31Q13.75-9.31 14.97-10.47 16.19-11.62 16.19-13.65 16.19-15.67 14.97-16.83 13.75-17.98 11.38-17.98L11.38-17.98ZM21.09-21.3L23.37-21.3 23.37-12.84Q24.19-13.94 25.38-14.7 26.56-15.46 28.08-15.46 29.6-15.46 30.7-15.03 31.8-14.6 32.62-13.75L32.62-13.75Q34.5-11.9 34.5-8.85L34.5-8.85 34.5 0 32.22 0 32.22-8.79Q32.22-10.89 31.03-12.14 29.85-13.39 27.96-13.39L27.96-13.39Q26.04-13.39 24.71-12.11L24.71-12.11Q23.37-10.8 23.37-8.76L23.37-8.76 23.37 0 21.09 0 21.09-21.3ZM45.09-1.83L45.09-1.83Q48.16-1.83 49.5-4.38L49.5-4.38 52-4.38Q51.21-2.31 49.49-1.03 47.77 0.24 45.06 0.24L45.06 0.24Q41.62 0.24 39.46-2.04L39.46-2.04Q37.36-4.26 37.36-7.61L37.36-7.61Q37.36-10.98 39.37-13.17L39.37-13.17Q41.5-15.46 44.91-15.46L44.91-15.46Q48.32-15.46 50.45-13.17L50.45-13.17Q52.45-10.98 52.45-7.61L52.45-7.61 52.45-6.69 39.71-6.69Q39.95-4.59 41.38-3.23L41.38-3.23Q42.84-1.83 45.09-1.83ZM44.91-13.39L44.91-13.39Q42.81-13.39 41.38-12.08L41.38-12.08Q40.04-10.83 39.74-8.82L39.74-8.82 50.08-8.82Q49.78-10.83 48.44-12.08L48.44-12.08Q47.01-13.39 44.91-13.39ZM57.54-15.21L57.54-12.9Q59.06-15.46 62.16-15.46L62.16-15.46Q63.68-15.46 64.97-14.65 66.27-13.84 67-12.38L67-12.38Q68.03-14.3 70.22-15.12L70.22-15.12Q71.11-15.46 72.22-15.46 73.33-15.46 74.35-15.02 75.37-14.57 76.16-13.75L76.16-13.75Q77.86-11.93 77.86-9.19L77.86-9.19 77.86 0 75.58 0 75.58-9.13Q75.58-11.01 74.51-12.23L74.51-12.23Q73.45-13.39 71.81-13.39L71.81-13.39Q70.07-13.39 68.91-12.26L68.91-12.26Q67.7-11.11 67.7-9.1L67.7-9.1 67.7 0 65.42 0 65.42-9.13Q65.42-11.01 64.35-12.23L64.35-12.23Q63.29-13.39 61.64-13.39L61.64-13.39Q59.91-13.39 58.75-12.26L58.75-12.26Q57.54-11.11 57.54-9.1L57.54-9.1 57.54 0 55.25 0 55.25-15.21 57.54-15.21ZM88.45-1.83L88.45-1.83Q91.52-1.83 92.86-4.38L92.86-4.38 95.35-4.38Q94.56-2.31 92.84-1.03 91.13 0.24 88.42 0.24L88.42 0.24Q84.98 0.24 82.82-2.04L82.82-2.04Q80.72-4.26 80.72-7.61L80.72-7.61Q80.72-10.98 82.73-13.17L82.73-13.17Q84.86-15.46 88.27-15.46L88.27-15.46Q91.67-15.46 93.8-13.17L93.8-13.17Q95.81-10.98 95.81-7.61L95.81-7.61 95.81-6.69 83.06-6.69Q83.31-4.59 84.74-3.23L84.74-3.23Q86.2-1.83 88.45-1.83ZM88.27-13.39L88.27-13.39Q86.17-13.39 84.74-12.08L84.74-12.08Q83.4-10.83 83.09-8.82L83.09-8.82 93.44-8.82Q93.13-10.83 91.8-12.08L91.8-12.08Q90.37-13.39 88.27-13.39Z" transform="translate(-2.4600000381469727, 21.299999237060547)"></path></g></g></g></g> <!----></g></g><defs v-gra="od"></defs></svg>